<?xml version="1.0" encoding="UTF-8" standalone="no"?>
<svg
   xmlns:dc="http://purl.org/dc/elements/1.1/"
   xmlns:cc="http://creativecommons.org/ns#"
   xmlns:rdf="http://www.w3.org/1999/02/22-rdf-syntax-ns#"
   xmlns:svg="http://www.w3.org/2000/svg"
   xmlns="http://www.w3.org/2000/svg"
   version="1.1"
   id="svg2"
   viewBox="0 0 360 360"
   height="4in"
   width="4in">
  <defs
     id="defs4">
    <clipPath
       id="clipPath7015"
       clipPathUnits="userSpaceOnUse">
      <rect
         y="460.53503"
         x="184.54485"
         height="243.62883"
         width="372.53506"
         id="rect7017"
         style="fill:#0000ff;fill-rule:evenodd;stroke:#000000;stroke-width:1.12117362px;stroke-linecap:butt;stroke-linejoin:miter;stroke-opacity:1" />
    </clipPath>
    <clipPath
       id="clipPath7026"
       clipPathUnits="userSpaceOnUse">
      <rect
         style="fill:#0000ff;fill-rule:evenodd;stroke:#000000;stroke-width:0.96877837px;stroke-linecap:butt;stroke-linejoin:miter;stroke-opacity:1"
         id="rect7028"
         width="361.3186"
         height="235.3652"
         x="360.24988"
         y="177.62006" />
    </clipPath>
    <clipPath
       id="clipPath7085"
       clipPathUnits="userSpaceOnUse">
      <path
         id="path7087"
         d="m 236.30675,444.57894 c 0.98765,-5.24125 1.18771,-14.92523 1.68407,-20.16648 l 160.22562,-0.27767 c 0.63359,6.02181 2.65953,14.67349 3.80454,19.67245 0,0 2.63378,8.73253 3.32795,12.81499 l -16.00902,1.3568 -35.52115,9.51788 -57.65602,0 -42.78399,-11.46395 -18.82529,-1.34725 z"
         style="fill:none;fill-rule:evenodd;stroke:#000000;stroke-width:2.01054788px;stroke-linecap:butt;stroke-linejoin:miter;stroke-opacity:1" />
    </clipPath>
  </defs>
  <metadata
     id="metadata7">
    <rdf:RDF>
      <cc:Work
         rdf:about="">
        <dc:format>image/svg+xml</dc:format>
        <dc:type
           rdf:resource="http://purl.org/dc/dcmitype/StillImage" />
        <dc:title></dc:title>
      </cc:Work>
    </rdf:RDF>
  </metadata>
  <g
     style="display:inline"
     id="layer4">
    <path
       id="path5328"
       d="M 35.947513,193.23656 A 144.65935,144.65935 0 0 1 166.76346,35.947509 144.65935,144.65935 0 0 1 324.05249,166.76351 144.65935,144.65935 0 0 1 193.23656,324.05249 144.65935,144.65935 0 0 1 35.947513,193.23656 Z"
       style="opacity:1;fill:none;fill-opacity:1;stroke:#ffffff;stroke-width:2.27625918;stroke-linecap:round;stroke-miterlimit:10;stroke-dasharray:none;stroke-dashoffset:0;stroke-opacity:1" />
    <path
       id="path5328-8"
       d="M 35.380422,264.3396 A 167.41562,167.41562 0 0 0 264.33962,324.61955 167.41562,167.41562 0 0 0 324.61954,95.660333 167.41562,167.41562 0 0 0 95.660402,35.380433 167.41562,167.41562 0 0 0 35.380422,264.3396 Z"
       style="display:inline;opacity:1;fill:none;fill-opacity:1;stroke:#ffffff;stroke-width:2.63433623;stroke-linecap:round;stroke-miterlimit:10;stroke-dasharray:none;stroke-dashoffset:0;stroke-opacity:1" />
    <path
       transform="translate(-360.2655,-177.81818)"
       clip-path="url(#clipPath7026)"
       id="path4136-5"
       d="m 360.2655,357.81818 a 180,180 0 0 1 180,-180 180,180 0 0 1 180,180 180,180 0 0 1 -180,180 180,180 0 0 1 -180,-180 z m 42.63086,0 A 137.36842,137.36842 0 0 0 540.2655,495.18732 137.36842,137.36842 0 0 0 677.63464,357.81818 137.36842,137.36842 0 0 0 540.2655,220.44904 137.36842,137.36842 0 0 0 402.89636,357.81818 Z"
       style="display:inline;opacity:0.98000004;fill:#000000;fill-opacity:1;stroke:none;stroke-width:22;stroke-linejoin:miter;stroke-miterlimit:4;stroke-dasharray:none" />
    <g
       id="text5314"
       style="font-style:normal;font-variant:normal;font-weight:bold;font-stretch:normal;font-size:40px;line-height:120.00000477%;font-family:'Source Sans Pro';-inkscape-font-specification:'Source Sans Pro, Bold';text-align:start;letter-spacing:0px;word-spacing:0px;writing-mode:lr-tb;text-anchor:start;fill:#ffffff;fill-opacity:1;stroke:#ffffff;stroke-width:1px;stroke-linecap:butt;stroke-linejoin:miter;stroke-opacity:1">
      <path
         id="path7090"
         style="font-style:normal;font-variant:normal;font-weight:bold;font-stretch:normal;font-size:40px;line-height:120.00000477%;font-family:'Source Sans Pro';-inkscape-font-specification:'Source Sans Pro, Bold';text-align:start;writing-mode:lr-tb;text-anchor:start;fill:#ffffff"
         d="m 9.4070351,190.60879 -0.2720132,-16.31773 4.9593111,-0.0827 0.174008,10.43855 5.239272,-0.0873 -0.148007,-8.87876 4.919317,-0.082 0.148007,8.87877 5.999167,-0.10001 -0.180676,-10.83849 4.959311,-0.0827 0.27868,16.71768 -26.0763769,0.43468 z" />
      <path
         id="path7092"
         style="font-style:normal;font-variant:normal;font-weight:bold;font-stretch:normal;font-size:40px;line-height:120.00000477%;font-family:'Source Sans Pro';-inkscape-font-specification:'Source Sans Pro, Bold';text-align:start;writing-mode:lr-tb;text-anchor:start;fill:#ffffff"
         d="m 25.519277,168.34255 q -2.416668,-0.33662 -4.224496,-1.275 -1.80231,-0.978 -2.955173,-2.2694 -1.186962,-1.33653 -1.695897,-2.90171 -0.503416,-1.60479 -0.288199,-3.14988 0.226254,-1.62431 0.991586,-2.76968 0.725716,-1.15089 2.153509,-2.12321 l 0.02207,-0.15847 -1.875038,-0.74581 0.634615,-4.55601 26.939909,3.7525 -0.811203,5.82378 -5.982244,-0.83328 -2.977821,-0.6571 q 0.812861,1.12288 1.264634,2.51855 0.412156,1.39015 0.224531,2.73715 -0.253846,1.8224 -1.17666,3.22854 -0.917296,1.36651 -2.37367,2.25408 -1.490474,0.84243 -3.47489,1.17181 -1.978898,0.28976 -4.395567,-0.0469 z m 0.754042,-5.99328 q 2.931696,0.40836 4.405614,-0.31522 1.479437,-0.76319 1.716728,-2.46674 0.132441,-0.95082 -0.158885,-1.75874 -0.285807,-0.84754 -1.176914,-1.69861 l -8.042355,-1.12023 q -0.823483,0.69302 -1.216692,1.48636 -0.393209,0.79333 -0.503576,1.58568 -0.193144,1.38662 1.004855,2.64392 1.158381,1.25178 3.971225,1.64358 z" />
      <path
         id="path7094"
         style="font-style:normal;font-variant:normal;font-weight:bold;font-stretch:normal;font-size:40px;line-height:120.00000477%;font-family:'Source Sans Pro';-inkscape-font-specification:'Source Sans Pro, Bold';text-align:start;writing-mode:lr-tb;text-anchor:start;fill:#ffffff"
         d="m 20.036341,140.4339 1.722031,-5.62219 11.053147,3.38549 q 2.065294,0.63258 3.005935,0.29318 0.940641,-0.3394 1.315505,-1.56328 0.328006,-1.07089 0.05338,-1.94986 -0.274624,-0.87896 -1.126045,-2.0601 l -12.544748,-3.84236 1.722032,-5.62219 18.970106,5.8104 -1.40574,4.58954 -2.767846,-0.38759 -0.03514,0.11473 q 1.078491,1.66903 1.48647,3.34186 0.381448,1.62287 -0.215991,3.57342 -0.948875,3.09794 -3.409359,3.89218 -2.44877,0.756 -6.043911,-0.34516 L 20.036341,140.4339 Z" />
      <path
         id="path7096"
         style="font-style:normal;font-variant:normal;font-weight:bold;font-stretch:normal;font-size:40px;line-height:120.00000477%;font-family:'Source Sans Pro';-inkscape-font-specification:'Source Sans Pro, Bold';text-align:start;writing-mode:lr-tb;text-anchor:start;fill:#ffffff"
         d="m 40.877137,122.68801 q -2.80932,-1.35725 -3.245624,-4.49999 -0.436305,-3.14275 1.581331,-8.69824 -1.22336,-0.50219 -2.220892,-0.1845 -1.03355,0.3003 -1.729574,1.74097 -0.55682,1.15255 -0.681436,2.51389 -0.124616,1.36135 0.0053,3.02338 l -4.398473,0.18502 q -0.209262,-2.23343 0.04726,-4.41952 0.273928,-2.22211 1.300564,-4.34711 1.670459,-3.45763 4.52142,-4.30144 2.832345,-0.89723 6.974291,1.10384 l 10.228806,4.94177 -2.088073,4.32204 -2.02827,-0.49125 -0.0522,0.10805 q 0.451654,1.63976 0.473537,3.24958 0.0033,1.5564 -0.72756,3.06911 -0.59162,1.22458 -1.49364,1.98823 -0.866003,0.78105 -1.916953,1.11736 -1.086967,0.31891 -2.25083,0.24528 -1.146463,-0.10965 -2.299005,-0.66647 z m 2.039899,-5.23378 q 0.864407,0.41762 1.557619,0.0862 0.674596,-0.38486 1.127012,-1.3213 0.452415,-0.93644 0.36944,-1.77615 -0.08298,-0.83971 -0.455301,-1.90807 l -3.133473,-1.51385 q -0.978462,3.03675 -0.744125,4.48267 0.234338,1.44592 1.278828,1.95053 z" />
      <path
         id="path7098"
         style="font-style:normal;font-variant:normal;font-weight:bold;font-stretch:normal;font-size:40px;line-height:120.00000477%;font-family:'Source Sans Pro';-inkscape-font-specification:'Source Sans Pro, Bold';text-align:start;writing-mode:lr-tb;text-anchor:start;fill:#ffffff"
         d="m 32.237298,90.534611 3.138285,-4.972481 18.706,11.80593 q 0.778007,0.491024 1.253236,0.412553 0.496577,-0.112298 0.688717,-0.416736 0.106745,-0.169132 0.170791,-0.270611 0.0854,-0.135305 0.145836,-0.380962 l 4.071358,1.718153 q -0.08705,0.512661 -0.391204,1.219409 -0.248975,0.694274 -0.782697,1.539934 -0.811257,1.2854 -1.772245,1.9087 -0.960987,0.6233 -2.012924,0.7162 -1.064414,0.0377 -2.228648,-0.36596 -1.198061,-0.42504 -2.483464,-1.23629 L 32.237298,90.534611 Z" />
      <path
         id="path7100"
         style="font-style:normal;font-variant:normal;font-weight:bold;font-stretch:normal;font-size:40px;line-height:120.00000477%;font-family:'Source Sans Pro';-inkscape-font-specification:'Source Sans Pro, Bold';text-align:start;writing-mode:lr-tb;text-anchor:start;fill:#ffffff"
         d="m 45.701865,80.031597 q -0.883971,1.187012 -2.131066,1.455252 -1.279177,0.244349 -2.369944,-0.567948 -1.090767,-0.812298 -1.19109,-2.083964 -0.100323,-1.271667 0.783648,-2.458678 0.907862,-1.219093 2.131066,-1.455251 1.247096,-0.268241 2.337863,0.544057 1.090767,0.812297 1.223171,2.107855 0.124214,1.239585 -0.783648,2.458677 z m 0.597891,4.085992 3.511992,-4.715964 15.912368,11.849985 -3.511992,4.715964 -15.912368,-11.849985 z" />
      <path
         id="path7102"
         style="font-style:normal;font-variant:normal;font-weight:bold;font-stretch:normal;font-size:40px;line-height:120.00000477%;font-family:'Source Sans Pro';-inkscape-font-specification:'Source Sans Pro, Bold';text-align:start;writing-mode:lr-tb;text-anchor:start;fill:#ffffff"
         d="m 58.086987,76.447828 -1.815002,2.025874 -3.247357,-2.909341 1.849778,-2.42436 -3.47883,-4.029708 3.256328,-3.634657 3.93258,3.523239 3.176253,-3.54528 3.426112,3.069489 -3.176254,3.54528 5.928662,5.31155 q 1.251275,1.121031 2.271079,1.121695 1.016703,-0.05582 1.790748,-0.919795 0.320294,-0.357507 0.551212,-0.795088 0.257609,-0.467373 0.405352,-0.872061 l 3.801671,2.170737 q -0.355071,0.755993 -0.89698,1.720531 -0.541909,0.964539 -1.502792,2.037061 -1.227796,1.370444 -2.525698,1.979912 -1.27121,0.579676 -2.576532,0.538034 -1.278631,-0.07143 -2.588273,-0.707705 -1.312742,-0.692753 -2.59381,-1.840475 l -5.988247,-5.364932 z" />
      <path
         id="path7104"
         style="font-style:normal;font-variant:normal;font-weight:bold;font-stretch:normal;font-size:40px;line-height:120.00000477%;font-family:'Source Sans Pro';-inkscape-font-specification:'Source Sans Pro, Bold';text-align:start;writing-mode:lr-tb;text-anchor:start;fill:#ffffff"
         d="m 81.465613,77.783031 q 0.263777,-0.123377 0.587918,-0.299253 0.324142,-0.175875 0.565603,-0.385867 1.116757,-0.971213 1.247928,-2.039479 0.131171,-1.068267 -0.328224,-2.206053 l -0.471195,-0.968492 -18.44314,-9.564652 4.467029,-3.88485 7.734,4.565222 q 1.224474,0.73747 2.414832,1.557621 1.190358,0.820152 2.463397,1.674419 l 0.12073,-0.104996 q -0.677253,-1.266384 -1.354507,-2.532768 -0.673319,-1.322815 -1.32039,-2.615448 l -3.780076,-8.003838 4.255751,-3.701107 7.959328,19.636321 q 0.690415,1.891065 1.005477,3.472437 0.371493,1.585305 0.190471,2.961979 -0.12459,1.380608 -0.805629,2.609015 -0.650856,1.202159 -1.978891,2.357115 -0.694201,0.603726 -1.25587,0.933162 -0.53542,0.359619 -1.119404,0.60244 l -2.155138,-4.062928 0,0 z" />
      <path
         id="path7106"
         style="font-style:normal;font-variant:normal;font-weight:bold;font-stretch:normal;font-size:40px;line-height:120.00000477%;font-family:'Source Sans Pro';-inkscape-font-specification:'Source Sans Pro, Bold';text-align:start;writing-mode:lr-tb;text-anchor:start;fill:#ffffff"
         d="m 92.890302,36.989379 q -1.263434,0.770802 -2.52044,0.553698 -1.277839,-0.251252 -1.986144,-1.412245 -0.708304,-1.160993 -0.326261,-2.378057 0.382042,-1.217063 1.645476,-1.987865 1.29758,-0.791634 2.52044,-0.553697 1.257007,0.217105 1.965311,1.378098 0.708304,1.160993 0.347094,2.412203 -0.347895,1.196231 -1.645476,1.987865 z m -0.97195,4.013492 5.019588,-3.062374 10.33291,16.936841 -5.01959,3.062374 -10.332908,-16.936841 z" />
      <path
         id="path7108"
         style="font-style:normal;font-variant:normal;font-weight:bold;font-stretch:normal;font-size:40px;line-height:120.00000477%;font-family:'Source Sans Pro';-inkscape-font-specification:'Source Sans Pro, Bold';text-align:start;writing-mode:lr-tb;text-anchor:start;fill:#ffffff"
         d="m 103.383,34.119437 4.36328,-2.000458 1.41384,2.124015 0.14544,-0.06668 q 0.66343,-1.624274 1.67838,-3.057686 0.99829,-1.469773 2.85268,-2.319967 2.94521,-1.350309 5.13773,-0.02333 2.22887,1.310306 3.7959,4.728204 l 5.13451,11.199073 -5.34501,2.450561 -4.81777,-10.508221 q -0.90021,-1.963474 -1.77903,-2.440629 -0.84246,-0.493826 -2.006,0.03963 -1.01809,0.466773 -1.52859,1.272871 -0.52717,0.769737 -1.0164,2.006123 l 5.58461,12.18081 -5.34501,2.45056 -8.26856,-18.03487 z" />
      <path
         id="path7110"
         style="font-style:normal;font-variant:normal;font-weight:bold;font-stretch:normal;font-size:40px;line-height:120.00000477%;font-family:'Source Sans Pro';-inkscape-font-specification:'Source Sans Pro, Bold';text-align:start;writing-mode:lr-tb;text-anchor:start;fill:#ffffff"
         d="m 141.17782,32.918067 q 1.62607,0.869416 3.43054,1.248754 1.84352,0.370702 3.44484,0.0166 1.7966,-0.397281 2.50902,-1.251245 0.75148,-0.862601 0.50102,-1.99524 -0.12955,-0.585847 -0.49795,-0.955013 -0.32934,-0.377802 -0.90617,-0.577979 -0.5464,-0.24787 -1.30988,-0.365808 -0.73305,-0.16563 -1.63096,-0.335772 l -3.63072,-0.671927 q -1.06278,-0.174652 -2.13832,-0.592279 -1.03649,-0.426263 -1.95993,-1.082355 -0.89302,-0.703785 -1.56446,-1.702365 -0.68008,-1.037637 -0.991,-2.443671 -0.34546,-1.56226 0.0162,-3.076058 0.35305,-1.552856 1.33925,-2.836057 0.97756,-1.322259 2.48839,-2.270841 1.54988,-0.957219 3.54176,-1.397683 2.22622,-0.492283 4.56433,-0.10805 2.37717,0.375597 4.38028,1.653235 l -2.12604,4.279995 q -1.46572,-0.700043 -2.82781,-0.931408 -1.37072,-0.270422 -2.89392,0.0664 -1.48415,0.328188 -2.24426,1.151733 -0.7297,0.775851 -0.48787,1.869433 0.12955,0.585848 0.49794,0.955013 0.39882,0.321473 0.98428,0.560706 0.61589,0.191541 1.388,0.348535 0.76347,0.117938 1.66138,0.288079 l 3.57439,0.602451 q 2.55067,0.419163 4.24133,1.765894 1.72971,1.338094 2.32563,4.032992 0.3541,1.601317 0.01,3.193228 -0.31399,1.544219 -1.32197,2.91417 -0.97757,1.322259 -2.62735,2.3835 -1.65841,1.022185 -3.92369,1.523105 -2.49961,0.552739 -5.19787,0.207178 -2.66784,-0.393254 -5.02658,-1.797082 l 2.40846,-4.670176 z" />
      <path
         id="path7112"
         style="font-style:normal;font-variant:normal;font-weight:bold;font-stretch:normal;font-size:40px;line-height:120.00000477%;font-family:'Source Sans Pro';-inkscape-font-specification:'Source Sans Pro, Bold';text-align:start;writing-mode:lr-tb;text-anchor:start;fill:#ffffff"
         d="m 165.83377,14.800315 -7.1435,0.485802 -0.33654,-4.94857 20.19336,-1.3732722 0.33653,4.9485702 -7.1435,0.485802 1.43298,21.07133 -5.90635,0.401669 -1.43298,-21.071331 z" />
      <path
         id="path7114"
         style="font-style:normal;font-variant:normal;font-weight:bold;font-stretch:normal;font-size:40px;line-height:120.00000477%;font-family:'Source Sans Pro';-inkscape-font-specification:'Source Sans Pro, Bold';text-align:start;writing-mode:lr-tb;text-anchor:start;fill:#ffffff"
         d="m 186.64371,9.1901871 16.26224,1.3718399 -0.41693,4.942446 -10.40305,-0.877574 -0.44047,5.221454 8.84857,0.746442 -0.41357,4.902588 -8.84857,-0.746443 -0.50435,5.978765 10.80163,0.911198 -0.41693,4.942445 -16.66083,-1.405463 2.19226,-25.9876979 z" />
      <path
         id="path7116"
         style="font-style:normal;font-variant:normal;font-weight:bold;font-stretch:normal;font-size:40px;line-height:120.00000477%;font-family:'Source Sans Pro';-inkscape-font-specification:'Source Sans Pro, Bold';text-align:start;writing-mode:lr-tb;text-anchor:start;fill:#ffffff"
         d="m 213.23701,12.045443 6.0197,1.643414 1.11941,12.454514 0.30397,4.809865 0.15435,0.04214 2.70588,-3.988158 7.17698,-10.189554 5.98111,1.632879 -6.86863,25.15926 -5.28653,-1.443254 2.5178,-9.22249 q 0.25283,-0.926107 0.63551,-2.024085 0.38268,-1.097977 0.80395,-2.18542 0.43181,-1.126031 0.84254,-2.174885 0.42127,-1.087443 0.78987,-1.981947 l -0.15435,-0.04214 -3.67449,5.257888 -6.52406,8.709249 -2.27668,-0.621548 -1.1935,-10.816189 -0.41583,-6.374566 -0.15435,-0.04214 q -0.13707,0.957711 -0.32681,2.108362 -0.17921,1.112064 -0.41808,2.290768 -0.18974,1.150651 -0.41807,2.290767 -0.22833,1.140116 -0.48116,2.066224 l -2.5178,9.222489 -5.20935,-1.422184 6.86862,-25.159261 z" />
      <path
         id="path7118"
         style="font-style:normal;font-variant:normal;font-weight:bold;font-stretch:normal;font-size:40px;line-height:120.00000477%;font-family:'Source Sans Pro';-inkscape-font-specification:'Source Sans Pro, Bold';text-align:start;writing-mode:lr-tb;text-anchor:start;fill:#ffffff"
         d="m 255.49189,30.545526 q -1.32055,-0.668252 -1.79784,-1.851211 -0.45923,-1.21865 0.15484,-2.432124 0.61407,-1.213474 1.84992,-1.529511 1.23585,-0.316038 2.55639,0.352215 1.35624,0.686313 1.79784,1.851211 0.47729,1.18296 -0.13678,2.396433 -0.61407,1.213474 -1.86798,1.565202 -1.20015,0.334099 -2.55639,-0.352215 z m -3.92384,1.286956 5.24649,2.654948 -8.9582,17.702441 -5.24649,-2.654949 8.9582,-17.70244 z" />
      <path
         id="path7120"
         style="font-style:normal;font-variant:normal;font-weight:bold;font-stretch:normal;font-size:40px;line-height:120.00000477%;font-family:'Source Sans Pro';-inkscape-font-specification:'Source Sans Pro, Bold';text-align:start;writing-mode:lr-tb;text-anchor:start;fill:#ffffff"
         d="m 256.34949,50.041917 q 0.58766,1.608061 1.35368,2.713144 0.76602,1.105083 1.84532,1.793205 1.11303,0.709625 1.85549,0.661172 0.74247,-0.04845 1.17254,-0.723015 0.25805,-0.404738 0.14803,-0.901825 -0.0548,-0.509312 -0.38868,-1.101694 -0.30016,-0.570878 -0.77825,-1.160315 -0.45658,-0.623165 -0.92538,-1.301562 -0.58221,-0.798141 -1.09992,-1.697465 -0.5177,-0.899325 -0.79297,-1.881275 -0.25376,-1.015679 -0.16391,-2.049471 0.11135,-1.067521 0.77797,-2.113093 0.73113,-1.146757 1.7932,-1.845323 1.09581,-0.677063 2.36909,-0.814031 1.27327,-0.136968 2.6903,0.244656 1.43853,0.347895 2.88884,1.272558 1.9225,1.225716 2.94274,2.824942 1.04174,1.565497 1.60494,3.063094 l -4.11839,1.548825 q -0.48058,-1.255165 -1.12097,-2.185273 -0.64039,-0.930108 -1.51732,-1.489207 -1.88878,-1.204212 -2.72742,0.111185 -0.25805,0.404738 -0.18176,0.880321 0.0978,0.441856 0.38574,0.957502 0.32166,0.53715 0.74451,1.138811 0.47809,0.589437 0.9684,1.234106 0.61594,0.819645 1.13364,1.718969 0.57293,0.887101 0.8482,1.869051 0.309,1.003454 0.17614,2.104703 -0.11135,1.067521 -0.84248,2.214277 -0.73113,1.146757 -1.7932,1.845323 -1.06208,0.698567 -2.41209,0.881487 -1.32852,0.149192 -2.88973,-0.229486 -1.53972,-0.412407 -3.22612,-1.487596 -1.65268,-1.053686 -2.99797,-2.812718 -1.31157,-1.737528 -1.92662,-3.600244 l 4.20441,-1.683738 z" />
      <path
         id="path7122"
         style="font-style:normal;font-variant:normal;font-weight:bold;font-stretch:normal;font-size:40px;line-height:120.00000477%;font-family:'Source Sans Pro';-inkscape-font-specification:'Source Sans Pro, Bold';text-align:start;writing-mode:lr-tb;text-anchor:start;fill:#ffffff"
         d="m 278.41364,65.851636 q 0.29133,1.687106 0.8479,2.911127 0.55658,1.22402 1.49579,2.093661 0.96857,0.896817 1.70776,0.981607 0.7392,0.08479 1.28272,-0.502221 0.32612,-0.352205 0.30655,-0.860946 0.037,-0.510915 -0.18589,-1.153363 -0.19349,-0.615271 -0.55874,-1.280547 -0.33808,-0.694627 -0.67833,-1.44578 -0.43047,-0.889208 -0.77941,-1.866468 -0.34895,-0.97726 -0.44461,-1.992567 -0.0685,-1.044658 0.20436,-2.045834 0.30003,-1.030527 1.14249,-1.940391 0.92399,-0.997916 2.09366,-1.495788 1.19902,-0.470695 2.47631,-0.378298 1.27729,0.0924 2.60349,0.720712 1.35338,0.598965 2.61545,1.767545 1.67298,1.549048 2.39152,3.304637 0.74572,1.726239 1.03271,3.300291 l -4.32865,0.789206 q -0.24893,-1.320768 -0.71311,-2.350207 -0.46417,-1.029438 -1.22728,-1.736021 -1.64363,-1.521872 -2.7035,-0.377204 -0.32612,0.352206 -0.3359,0.83377 0.0174,0.452214 0.20872,1.010959 0.22067,0.585921 0.52939,1.253371 0.36525,0.665276 0.73268,1.387079 0.45982,0.916384 0.80877,1.893644 0.40547,0.975086 0.50113,1.990393 0.12502,1.042484 -0.20219,2.102361 -0.30002,1.030527 -1.22401,2.028442 -0.924,0.997916 -2.09367,1.495788 -1.16966,0.497872 -2.53065,0.436999 -1.33382,-0.09022 -2.80243,-0.741366 -1.44143,-0.680493 -2.90895,-2.039307 -1.43818,-1.331638 -2.44805,-3.302463 -0.98053,-1.943649 -1.25338,-3.886212 l 4.43735,-0.906609 z" />
      <path
         id="path7124"
         style="font-style:normal;font-variant:normal;font-weight:bold;font-stretch:normal;font-size:40px;line-height:120.00000477%;font-family:'Source Sans Pro';-inkscape-font-specification:'Source Sans Pro, Bold';text-align:start;writing-mode:lr-tb;text-anchor:start;fill:#ffffff"
         d="m 293.54354,74.653463 q 1.91834,-1.571741 3.91052,-2.169753 2.02312,-0.623364 3.88074,-0.438884 1.88298,0.215422 3.5244,1.145863 1.67237,0.905091 2.86385,2.359317 1.19148,1.454225 1.72462,3.240999 0.58943,1.792364 0.40495,3.649988 -0.15913,1.888565 -1.16822,3.749567 -0.97815,1.835652 -2.89649,3.407393 -1.91834,1.571741 -3.94146,2.195104 -1.99218,0.598013 -3.87516,0.382592 -1.85762,-0.18448 -3.52999,-1.089571 -1.61608,-0.899501 -2.80756,-2.353726 -1.19148,-1.454226 -1.78091,-3.24659 -0.55849,-1.817715 -0.39936,-3.70628 0.18448,-1.857624 1.16263,-3.693275 1.00909,-1.861002 2.92744,-3.432744 z m 3.82795,4.672087 q -2.01117,1.647793 -2.62921,3.29182 -0.59269,1.674968 0.57344,3.098252 1.14078,1.392344 2.8996,1.140661 1.75882,-0.251683 3.76999,-1.899476 2.01116,-1.647793 2.60385,-3.322761 0.59269,-1.674968 -0.54809,-3.067311 -1.16613,-1.423285 -2.92495,-1.171602 -1.73347,0.282624 -3.74463,1.930417 z" />
      <path
         id="path7126"
         style="font-style:normal;font-variant:normal;font-weight:bold;font-stretch:normal;font-size:40px;line-height:120.00000477%;font-family:'Source Sans Pro';-inkscape-font-specification:'Source Sans Pro, Bold';text-align:start;writing-mode:lr-tb;text-anchor:start;fill:#ffffff"
         d="m 329.79054,93.54463 2.68343,5.231982 -6.12178,3.139788 -2.77798,1.24498 q 1.45476,0.55754 2.55545,1.47651 1.15453,0.9363 1.79344,2.18201 0.82146,1.60162 0.83797,3.21151 0.0165,1.60988 -0.70165,3.10207 -0.66431,1.50954 -2.09981,2.83019 -1.38166,1.338 -3.41039,2.37851 -2.27787,1.16829 -4.38603,1.44037 -2.08992,0.30767 -3.88326,-0.12117 -1.73951,-0.4115 -3.07383,-1.4354 -1.31607,-0.98832 -2.04625,-2.41198 -0.60241,-1.17453 -0.65359,-2.67672 -0.0329,-1.4666 0.57661,-3.08291 l -0.073,-0.14237 -2.06982,0.52214 -2.09928,-4.09304 24.94979,-12.79647 z m -17.28352,15.4728 q -0.27556,1.04042 -0.15961,1.88004 0.11595,0.83961 0.46278,1.51586 0.69368,1.35248 2.39667,1.6928 1.73859,0.32207 4.47915,-1.08353 4.76929,-2.44612 3.19939,-5.50701 -0.8032,-1.56603 -3.15326,-2.20384 l -7.22512,3.70568 z" />
      <path
         id="path7128"
         style="font-style:normal;font-variant:normal;font-weight:bold;font-stretch:normal;font-size:40px;line-height:120.00000477%;font-family:'Source Sans Pro';-inkscape-font-specification:'Source Sans Pro, Bold';text-align:start;writing-mode:lr-tb;text-anchor:start;fill:#ffffff"
         d="m 319.69595,124.0723 q 2.96004,-0.9862 5.46427,0.96213 2.50424,1.94834 4.93208,7.33721 1.22703,-0.49313 1.72049,-1.41644 0.5314,-0.93596 0.0256,-2.45393 -0.40459,-1.21437 -1.26457,-2.27702 -0.85998,-1.06266 -2.11208,-2.16331 l 3.0236,-3.19978 q 1.70742,1.4549 3.04797,3.20067 1.35319,1.78372 2.09916,4.02273 1.21378,3.64312 -0.24125,6.23597 -1.40444,2.61816 -5.76859,4.07217 l -10.77757,3.59076 -1.51723,-4.5539 1.79633,-1.06226 -0.0379,-0.11385 q -1.46717,-0.86036 -2.60542,-1.99894 -1.08766,-1.11329 -1.61869,-2.70715 -0.42988,-1.29027 -0.31586,-2.46662 0.0761,-1.16371 0.59482,-2.13762 0.5567,-0.98655 1.44225,-1.74536 0.8982,-0.72087 2.11257,-1.12546 z m 2.18754,5.17381 q -0.91079,0.30344 -1.17652,1.0244 -0.21515,0.74627 0.11358,1.73295 0.32874,0.98667 0.97376,1.53068 0.64503,0.54401 1.65688,1.05012 l 3.30158,-1.09999 q -1.41628,-2.8589 -2.59252,-3.73186 -1.17624,-0.87297 -2.27676,-0.5063 z" />
      <path
         id="path7130"
         style="font-style:normal;font-variant:normal;font-weight:bold;font-stretch:normal;font-size:40px;line-height:120.00000477%;font-family:'Source Sans Pro';-inkscape-font-specification:'Source Sans Pro, Bold';text-align:start;writing-mode:lr-tb;text-anchor:start;fill:#ffffff"
         d="m 326.99429,146.64402 q -0.77004,1.52913 -1.05131,2.844 -0.28127,1.31487 -0.0441,2.57271 0.24456,1.29715 0.7881,1.80525 0.54354,0.5081 1.32969,0.35988 0.47169,-0.0889 0.75876,-0.50939 0.33379,-0.38857 0.53709,-1.03746 0.21072,-0.60959 0.31317,-1.36159 0.14176,-0.75941 0.31542,-1.56554 0.18332,-0.97077 0.48457,-1.96377 0.30124,-0.993 0.82867,-1.86583 0.56673,-0.88023 1.38188,-1.52237 0.85445,-0.64954 2.07299,-0.87927 1.33645,-0.25196 2.57271,0.0441 1.24367,0.33539 2.21508,1.16987 0.97142,0.83447 1.66318,2.12872 0.73106,1.28684 1.04972,2.97706 0.4224,2.24053 -0.0451,4.07897 -0.42819,1.83102 -1.13443,3.26672 l -3.94816,-1.94216 q 0.58606,-1.20952 0.82577,-2.31303 0.2397,-1.10351 0.047,-2.12551 -0.415,-2.20122 -1.94799,-1.91221 -0.47169,0.0889 -0.76618,0.47009 -0.25517,0.37374 -0.43399,0.93661 -0.1714,0.60218 -0.32057,1.32229 -0.10246,0.752 -0.23681,1.55071 -0.17591,1.01008 -0.47715,2.00308 -0.25453,1.0249 -0.78196,1.89772 -0.52001,0.91214 -1.41377,1.56909 -0.85446,0.64955 -2.19091,0.90151 -1.33646,0.25196 -2.57272,-0.0441 -1.23625,-0.29609 -2.2937,-1.15505 -1.01813,-0.86637 -1.81073,-2.26372 -0.7533,-1.40476 -1.12383,-3.37014 -0.36312,-1.92607 -0.002,-4.11086 0.3689,-2.14549 1.30583,-3.8689 l 4.1054,1.91252 z" />
      <path
         id="path7132"
         style="font-style:normal;font-variant:normal;font-weight:bold;font-stretch:normal;font-size:40px;line-height:120.00000477%;font-family:'Source Sans Pro';-inkscape-font-specification:'Source Sans Pro, Bold';text-align:start;writing-mode:lr-tb;text-anchor:start;fill:#ffffff"
         d="m 346.7715,165.28573 q -0.13026,-1.47426 0.62198,-2.50447 0.79209,-1.03373 2.14681,-1.15343 1.35473,-0.1197 2.27596,0.76264 0.92124,0.88234 1.0515,2.3566 0.13378,1.5141 -0.62198,2.50446 -0.75225,1.03021 -2.10697,1.14991 -1.35472,0.1197 -2.3158,-0.75912 -0.91771,-0.84249 -1.0515,-2.35659 z m -3.16567,-2.65167 0.51753,5.85718 -19.763,1.74624 -0.51754,-5.85718 19.76301,-1.74624 z" />
      <path
         id="path7134"
         style="font-style:normal;font-variant:normal;font-weight:bold;font-stretch:normal;font-size:40px;line-height:120.00000477%;font-family:'Source Sans Pro';-inkscape-font-specification:'Source Sans Pro, Bold';text-align:start;writing-mode:lr-tb;text-anchor:start;fill:#ffffff"
         d="m 334.68089,174.34153 q 2.47978,0.0333 4.38834,0.89893 1.94856,0.86621 3.24967,2.28378 1.30057,1.45758 1.9553,3.34653 0.69472,1.88948 0.66737,3.9293 -0.0247,1.83983 -0.68447,3.31112 -0.61979,1.47182 -1.67311,2.45778 l -3.60373,-2.72857 q 1.17867,-1.38432 1.19691,-2.7442 0.029,-2.1598 -1.47427,-3.42007 -1.50324,-1.26028 -4.103,-1.29514 -2.59977,-0.0349 -4.13626,1.18464 -1.53703,1.2595 -1.56278,3.17932 -0.0145,1.07991 0.41368,1.96573 0.42816,0.88582 0.97845,1.61327 l -3.75131,2.3099 q -1.26057,-1.45704 -1.83692,-3.22493 -0.57634,-1.76788 -0.55435,-3.40774 0.0279,-2.07981 0.73197,-3.87053 0.74354,-1.75019 2.08112,-3.05237 1.33758,-1.30217 3.2676,-2.03636 1.97002,-0.73365 4.44979,-0.70039 z" />
    </g>
  </g>
  <g
     style="display:inline"
     id="layer5">
    <g
       id="text6949"
       style="font-style:normal;font-variant:normal;font-weight:bold;font-stretch:normal;font-size:37.5px;line-height:125%;font-family:'Source Sans Pro';-inkscape-font-specification:'Source Sans Pro, Bold';text-align:start;letter-spacing:0px;word-spacing:0px;writing-mode:lr-tb;text-anchor:start;fill:#000000;fill-opacity:1;stroke:#000000;stroke-width:1px;stroke-linecap:butt;stroke-linejoin:miter;stroke-opacity:1">
      <path
         id="path7137"
         style="font-style:normal;font-variant:normal;font-weight:bold;font-stretch:normal;font-size:37.5px;line-height:125%;font-family:'Source Sans Pro';-inkscape-font-specification:'Source Sans Pro, Bold';text-align:start;writing-mode:lr-tb;text-anchor:start;fill:#000000;stroke:#000000"
         d="m 38.310488,271.93921 -4.514606,3.03063 -3.072434,-4.57688 21.17195,-14.21262 2.508109,3.73623 -1.316617,1.3355 0.0836,0.12454 q 1.415642,0.3595 2.697373,1.12505 1.333768,0.77579 2.148904,1.99006 0.940541,1.40108 1.132539,2.89817 0.191999,1.49708 -0.31294,2.96519 -0.50494,1.46811 -1.696583,2.85521 -1.139608,1.39734 -2.914315,2.58869 -1.992654,1.33766 -3.925632,1.82227 -1.880941,0.49485 -3.597701,0.29232 -1.664724,-0.19229 -3.019393,-0.99921 -1.333767,-0.77579 -2.169804,-2.0212 -0.668829,-0.99632 -0.891098,-2.20209 -0.191134,-1.22667 0.04382,-2.55871 l -2.355178,1.80685 z m 5.573205,-3.74126 q -0.142416,0.99892 0.05766,1.76793 0.200071,0.76901 0.597189,1.36058 0.794234,1.18314 2.417156,1.31316 1.654058,0.10912 4.05147,-1.50025 4.172119,-2.80073 2.374641,-5.47836 -0.898739,-1.33881 -3.177662,-1.70595 l -6.32045,4.24289 z" />
      <path
         id="path7139"
         style="font-style:normal;font-variant:normal;font-weight:bold;font-stretch:normal;font-size:37.5px;line-height:125%;font-family:'Source Sans Pro';-inkscape-font-specification:'Source Sans Pro, Bold';text-align:start;writing-mode:lr-tb;text-anchor:start;fill:#000000;stroke:#000000"
         d="m 67.061959,272.68795 q -0.878659,-1.07383 -0.839127,-2.26907 0.06855,-1.21899 1.055318,-2.0264 0.986765,-0.80742 2.166178,-0.60958 1.179413,0.19785 2.058071,1.27168 0.902407,1.10285 0.839128,2.26907 -0.03953,1.19524 -1.026297,2.00265 -0.986764,0.80742 -2.1952,0.63332 -1.155665,-0.16882 -2.058071,-1.27167 z m -3.852212,-0.38507 3.490887,4.2663 -14.395154,11.77878 -3.490887,-4.26631 14.395154,-11.77877 z" />
      <path
         id="path7141"
         style="font-style:normal;font-variant:normal;font-weight:bold;font-stretch:normal;font-size:37.5px;line-height:125%;font-family:'Source Sans Pro';-inkscape-font-specification:'Source Sans Pro, Bold';text-align:start;writing-mode:lr-tb;text-anchor:start;fill:#000000;stroke:#000000"
         d="m 58.180572,297.04988 -3.860927,3.82879 -3.881603,-3.91418 18.106418,-17.95572 3.168655,3.19525 -1.040672,1.56014 0.105622,0.10651 q 1.458062,0.0856 2.861319,0.59533 1.45629,0.5099 2.486103,1.54836 1.188245,1.19822 1.659554,2.63209 0.471309,1.43387 0.252752,2.97093 -0.218557,1.53706 -1.126759,3.12427 -0.85517,1.58743 -2.372914,3.09254 -1.704133,1.68995 -3.510786,2.53093 -1.75362,0.84121 -3.477731,0.96659 -1.67108,0.1256 -3.153775,-0.41093 -1.456289,-0.50991 -2.512508,-1.57499 -0.844974,-0.85207 -1.290986,-1.99415 -0.419385,-1.16849 -0.440249,-2.52093 l -1.971513,2.21917 z m 4.766248,-4.72658 q 0.04882,1.00784 0.390542,1.72522 0.341719,0.71738 0.843423,1.22329 1.003407,1.01183 2.621676,0.83298 1.644895,-0.20526 3.695181,-2.23848 3.568029,-3.53833 1.29716,-5.82826 -1.135435,-1.14497 -3.442683,-1.07506 l -5.405299,5.36031 z" />
      <path
         id="path7143"
         style="font-style:normal;font-variant:normal;font-weight:bold;font-stretch:normal;font-size:37.5px;line-height:125%;font-family:'Source Sans Pro';-inkscape-font-specification:'Source Sans Pro, Bold';text-align:start;writing-mode:lr-tb;text-anchor:start;fill:#000000;stroke:#000000"
         d="m 75.60461,299.10854 q 1.39123,-1.76833 3.093656,-2.71925 1.725613,-0.98039 3.433897,-1.21098 1.760943,-0.23687 3.416141,0.20649 1.655198,0.44336 2.981443,1.48679 1.562022,1.22892 2.294065,2.66371 0.761516,1.45799 0.785802,3.00396 0.05376,1.56916 -0.58334,3.16737 -0.61391,1.56873 -1.796456,3.07181 -0.463743,0.58944 -0.916869,1.04409 -0.429939,0.42518 -0.697567,0.64406 L 78.862164,303.58 q -1.026947,1.91178 -0.627762,3.46642 0.451845,1.54836 1.925451,2.70771 1.562022,1.22892 3.918692,1.50845 l -0.619524,3.75919 q -1.722806,-0.11484 -3.455803,-0.76255 -1.703525,-0.62453 -3.02977,-1.66795 -1.562022,-1.22892 -2.523557,-2.79656 -0.938348,-1.59711 -1.175224,-3.35805 -0.213688,-1.79041 0.339325,-3.64563 0.553014,-1.85522 1.990618,-3.68249 z m 10.613622,5.91681 q 0.997048,-1.2673 1.063131,-2.5036 0.06608,-1.2363 -1.260162,-2.27973 -1.031524,-0.81155 -2.383763,-0.73027 -1.29958,0.075 -2.694715,1.3631 l 5.275509,4.1505 z" />
      <path
         id="path7145"
         style="font-style:normal;font-variant:normal;font-weight:bold;font-stretch:normal;font-size:37.5px;line-height:125%;font-family:'Source Sans Pro';-inkscape-font-specification:'Source Sans Pro, Bold';text-align:start;writing-mode:lr-tb;text-anchor:start;fill:#000000;stroke:#000000"
         d="m 100.53731,296.71465 4.62241,3.0035 -11.298852,17.38907 q -0.469934,0.72323 -0.402262,1.16969 0.09912,0.46689 0.382123,0.65078 0.157224,0.10216 0.251559,0.16346 0.12578,0.0817 0.355314,0.14142 l -1.66107,3.79528 q -0.4795,-0.088 -1.13825,-0.38183 -0.647737,-0.24199 -1.433862,-0.75279 -1.194909,-0.77641 -1.767295,-1.68498 -0.572386,-0.90857 -0.646435,-1.89583 -0.02217,-0.99827 0.37067,-2.08464 0.413275,-1.11782 1.189688,-2.31273 l 11.176262,-17.2004 z" />
      <path
         id="path7147"
         style="font-style:normal;font-variant:normal;font-weight:bold;font-stretch:normal;font-size:37.5px;line-height:125%;font-family:'Source Sans Pro';-inkscape-font-specification:'Source Sans Pro, Bold';text-align:start;writing-mode:lr-tb;text-anchor:start;fill:#000000;stroke:#000000"
         d="m 108.12928,307.20585 q -1.2087,-0.68133 -1.60602,-1.80929 -0.3789,-1.16063 0.24718,-2.27132 0.62609,-1.1107 1.79681,-1.35477 1.17072,-0.24408 2.37941,0.43725 1.24137,0.69975 1.60602,1.80929 0.39732,1.12796 -0.22877,2.23866 -0.62608,1.11069 -1.81521,1.38743 -1.13806,0.26249 -2.37942,-0.43725 z m -3.72897,1.04048 4.80212,2.7069 -9.13348,16.20307 -4.802124,-2.7069 9.133484,-16.20307 z" />
      <path
         id="path7149"
         style="font-style:normal;font-variant:normal;font-weight:bold;font-stretch:normal;font-size:37.5px;line-height:125%;font-family:'Source Sans Pro';-inkscape-font-specification:'Source Sans Pro, Bold';text-align:start;writing-mode:lr-tb;text-anchor:start;fill:#000000;stroke:#000000"
         d="m 111.8181,312.55962 4.11166,1.82872 -0.61744,2.31101 0.13706,0.061 q 1.55362,-0.54026 3.19092,-0.71497 1.65253,-0.20897 3.39998,0.56824 2.77538,1.23438 3.20119,3.59898 0.46008,2.37985 -0.97242,5.60065 l -4.69372,10.55327 -5.03679,-2.24018 4.40418,-9.90226 q 0.82292,-1.85025 0.61375,-2.76412 -0.17491,-0.89863 -1.27135,-1.38628 -0.95939,-0.42671 -1.84278,-0.28606 -0.86815,0.10638 -2.04099,0.5287 l -5.10518,11.4784 -5.03678,-2.24019 7.55871,-16.99487 z" />
      <path
         id="path7151"
         style="font-style:normal;font-variant:normal;font-weight:bold;font-stretch:normal;font-size:37.5px;line-height:125%;font-family:'Source Sans Pro';-inkscape-font-specification:'Source Sans Pro, Bold';text-align:start;writing-mode:lr-tb;text-anchor:start;fill:#000000;stroke:#000000"
         d="m 125.69857,328.7368 q 0.65848,-2.15149 1.90243,-3.65319 1.25492,-1.53755 2.76455,-2.36968 1.55646,-0.85701 3.26004,-1.04152 1.70359,-0.18451 3.31721,0.30935 1.90048,0.58166 3.1014,1.65512 1.23678,1.08444 1.8179,2.51724 0.61698,1.44378 0.60025,3.16421 -0.006,1.68457 -0.56547,3.51333 -0.21949,0.71717 -0.47778,1.30481 -0.24731,0.55178 -0.4178,0.85255 l -10.64986,-3.25949 q -0.26698,2.15366 0.66686,3.45911 0.98066,1.28057 2.77357,1.82931 1.90048,0.58166 4.19898,-0.009 l 0.7803,3.72914 q -1.64795,0.51527 -3.4979,0.53733 -1.81409,0.033 -3.42771,-0.46082 -1.90048,-0.58166 -3.36339,-1.69609 -1.45193,-1.15028 -2.30894,-2.70674 -0.84603,-1.59232 -1.00055,-3.52203 -0.15452,-1.92971 0.52591,-4.15291 z m 12.03431,1.68314 q 0.47192,-1.5419 0.0869,-2.71859 -0.38499,-1.17669 -1.99861,-1.67055 -1.25503,-0.38411 -2.48659,0.18016 -1.18473,0.5394 -2.02033,2.24451 l 6.4186,1.96447 z" />
      <path
         id="path7153"
         style="font-style:normal;font-variant:normal;font-weight:bold;font-stretch:normal;font-size:37.5px;line-height:125%;font-family:'Source Sans Pro';-inkscape-font-specification:'Source Sans Pro, Bold';text-align:start;writing-mode:lr-tb;text-anchor:start;fill:#000000;stroke:#000000"
         d="m 150.36586,339.72563 q 0.38913,-2.899 3.06164,-4.20507 2.67251,-1.30607 8.21084,-1.1302 0.0903,-1.23648 -0.48391,-2.03245 -0.56922,-0.83313 -2.05589,-1.03269 -1.18933,-0.15964 -2.43853,0.12672 -1.2492,0.28635 -2.69197,0.88725 l -1.44874,-3.86459 q 1.92868,-0.83836 3.95114,-1.24794 2.05964,-0.40459 4.25247,-0.11025 3.568,0.47893 5.15194,2.77255 1.6261,2.26143 1.05238,6.53559 l -1.41684,10.55534 -4.46,-0.59867 -0.1544,-1.95038 -0.1115,-0.015 q -1.32902,0.88102 -2.75682,1.37042 -1.38565,0.45722 -2.94665,0.24769 -1.26366,-0.16962 -2.2073,-0.75032 -0.94862,-0.54353 -1.55501,-1.38166 -0.6014,-0.87529 -0.87553,-1.93366 -0.23697,-1.05339 -0.0773,-2.24272 z m 5.25821,0.28961 q -0.11974,0.892 0.3779,1.41283 0.53979,0.48865 1.50612,0.61836 0.96633,0.12972 1.69021,-0.18932 0.72388,-0.31903 1.56699,-0.96259 l 0.43403,-3.2335 q -2.99104,0.0147 -4.21081,0.64555 -1.21977,0.63083 -1.36444,1.70867 z" />
      <path
         id="path7155"
         style="font-style:normal;font-variant:normal;font-weight:bold;font-stretch:normal;font-size:37.5px;line-height:125%;font-family:'Source Sans Pro';-inkscape-font-specification:'Source Sans Pro, Bold';text-align:start;writing-mode:lr-tb;text-anchor:start;fill:#000000;stroke:#000000"
         d="m 171.405,332.95713 -2.54876,-0.0793 0.12713,-4.08552 2.85562,-0.13625 0.79114,-4.92778 4.57279,0.14229 -0.15396,4.94761 4.46034,0.13879 -0.13412,4.31041 -4.46034,-0.13879 -0.2321,7.45889 q -0.049,1.57424 0.56604,2.30622 0.65368,0.69567 1.74066,0.72949 0.44978,0.014 0.90306,-0.0845 0.49076,-0.0973 0.87025,-0.23555 l 0.73728,4.03739 q -0.75663,0.20156 -1.77564,0.39496 -1.01901,0.1934 -2.36836,0.15141 -1.72416,-0.0537 -2.94474,-0.61688 -1.18309,-0.56207 -1.94105,-1.52361 -0.72048,-0.96037 -1.05447,-2.2839 -0.29535,-1.35985 -0.2452,-2.97157 l 0.23443,-7.53385 z" />
      <path
         id="path7157"
         style="font-style:normal;font-variant:normal;font-weight:bold;font-stretch:normal;font-size:37.5px;line-height:125%;font-family:'Source Sans Pro';-inkscape-font-specification:'Source Sans Pro, Bold';text-align:start;writing-mode:lr-tb;text-anchor:start;fill:#000000;stroke:#000000"
         d="m 191.70523,332.76609 -2.53709,0.25629 -0.41081,-4.06681 2.81295,-0.5103 0.13677,-4.989 4.55184,-0.45981 0.4975,4.92493 4.4399,-0.4485 0.43343,4.29066 -4.4399,0.44851 0.75001,7.42471 q 0.1583,1.56702 0.86418,2.21185 0.73943,0.60374 1.82142,0.49444 0.44772,-0.0452 0.88413,-0.20239 0.47373,-0.16092 0.83175,-0.34785 l 1.26141,3.90549 q -0.72358,0.29924 -1.70834,0.62487 -0.98476,0.32562 -2.32793,0.4613 -1.71626,0.17337 -3.00026,-0.2246 -1.24669,-0.40173 -2.12443,-1.25534 -0.84042,-0.85737 -1.34544,-2.12554 -0.47147,-1.30924 -0.63353,-2.91358 l -0.75756,-7.49933 z" />
      <path
         id="path7159"
         style="font-style:normal;font-variant:normal;font-weight:bold;font-stretch:normal;font-size:37.5px;line-height:125%;font-family:'Source Sans Pro';-inkscape-font-specification:'Source Sans Pro, Bold';text-align:start;writing-mode:lr-tb;text-anchor:start;fill:#000000;stroke:#000000"
         d="m 203.3879,336.64623 q -0.44942,-2.20466 -0.0741,-4.11819 0.36786,-1.95028 1.2965,-3.40253 0.95789,-1.49649 2.36633,-2.47248 1.40843,-0.97599 3.06193,-1.31305 1.94745,-0.39699 3.5153,-0.0277 1.6046,0.36178 2.79964,1.34285 1.23179,0.97358 2.03904,2.49296 0.79975,1.48263 1.18176,3.35659 0.14981,0.73489 0.20365,1.37452 0.0464,0.60289 0.0403,0.94857 l -10.91306,2.22462 q 0.79439,2.01952 2.23844,2.72021 1.47331,0.65644 3.31053,0.28193 1.94745,-0.39699 3.68446,-2.01403 l 2.46711,2.90323 q -1.20154,1.23998 -2.81617,2.14319 -1.57788,0.89572 -3.23138,1.23278 -1.94745,0.39699 -3.76502,0.11689 -1.82506,-0.31685 -3.32155,-1.27474 -1.50398,-0.99464 -2.56165,-2.61605 -1.05768,-1.62141 -1.52208,-3.89956 z m 11.37618,-4.27086 q -0.32208,-1.58 -1.22246,-2.42978 -0.90038,-0.84978 -2.55388,-0.51272 -1.28605,0.26216 -2.09838,1.34626 -0.78307,1.03987 -0.70251,2.93701 l 6.57723,-1.34077 z" />
      <path
         id="path7161"
         style="font-style:normal;font-variant:normal;font-weight:bold;font-stretch:normal;font-size:37.5px;line-height:125%;font-family:'Source Sans Pro';-inkscape-font-specification:'Source Sans Pro, Bold';text-align:start;writing-mode:lr-tb;text-anchor:start;fill:#000000;stroke:#000000"
         d="m 219.37065,323.79688 4.26585,-1.43267 1.10763,2.12018 0.1422,-0.0478 q 0.77939,-1.4485 1.86759,-2.68425 1.07626,-1.2713 2.88924,-1.88019 2.87945,-0.96705 4.79197,0.48724 1.94806,1.44234 3.07032,4.78392 l 3.67718,10.94901 -5.22567,1.75502 -3.45034,-10.27358 q -0.6447,-1.91964 -1.41671,-2.45153 -0.73646,-0.54383 -1.87402,-0.16178 -0.99536,0.33429 -1.55113,1.0352 -0.56771,0.66536 -1.14628,1.76951 l 3.99953,11.90883 -5.22567,1.75502 -5.92169,-17.63217 z" />
      <path
         id="path7163"
         style="font-style:normal;font-variant:normal;font-weight:bold;font-stretch:normal;font-size:37.5px;line-height:125%;font-family:'Source Sans Pro';-inkscape-font-specification:'Source Sans Pro, Bold';text-align:start;writing-mode:lr-tb;text-anchor:start;fill:#000000;stroke:#000000"
         d="m 237.41675,317.56178 4.04779,-1.96605 1.3695,1.96125 0.13493,-0.0655 q 0.58789,-1.53623 1.50925,-2.90091 0.90497,-1.39841 2.62528,-2.23398 2.73226,-1.32709 4.81494,-0.12913 2.11642,1.18157 3.65649,4.35234 l 5.04622,10.38933 -4.95855,2.40842 -4.73492,-9.74843 q -0.88472,-1.8215 -1.71837,-2.25038 -0.79992,-0.44526 -1.87933,0.079 -0.94449,0.45875 -1.40613,1.22494 -0.47803,0.73245 -0.91076,1.90149 l 5.48858,11.30009 -4.95855,2.40842 -8.12637,-16.73088 z" />
      <path
         id="path7165"
         style="font-style:normal;font-variant:normal;font-weight:bold;font-stretch:normal;font-size:37.5px;line-height:125%;font-family:'Source Sans Pro';-inkscape-font-specification:'Source Sans Pro, Bold';text-align:start;writing-mode:lr-tb;text-anchor:start;fill:#000000;stroke:#000000"
         d="m 258.74044,317.36605 q -1.21906,-1.89113 -1.56393,-3.8104 -0.36518,-1.95078 -0.0271,-3.64107 0.34932,-1.74212 1.3074,-3.1628 0.95808,-1.42069 2.37643,-2.33498 1.67051,-1.07683 3.26546,-1.30188 1.62648,-0.24537 3.09613,0.23498 1.50118,0.46003 2.8049,1.58273 1.28341,1.09119 2.31961,2.69866 0.40635,0.63037 0.68871,1.20683 0.26205,0.54494 0.38187,0.86925 l -9.36113,6.03434 q 1.4733,1.5934 3.0732,1.72209 1.6111,0.0769 3.18705,-0.93903 1.6705,-1.07683 2.70204,-3.21411 l 3.3527,1.80962 q -0.66946,1.59157 -1.84608,3.01928 -1.14511,1.40739 -2.56346,2.32169 -1.67051,1.07683 -3.46578,1.47562 -1.81559,0.36727 -3.55771,0.0179 -1.76245,-0.38085 -3.33655,-1.50772 -1.57411,-1.12687 -2.8338,-3.08105 z m 9.04986,-8.10911 q -0.87366,-1.35531 -2.0211,-1.82029 -1.14743,-0.46497 -2.56579,0.44932 -1.10316,0.71112 -1.46655,2.01615 -0.35218,1.25319 0.41155,2.99168 l 5.64189,-3.63686 z" />
      <path
         id="path7167"
         style="font-style:normal;font-variant:normal;font-weight:bold;font-stretch:normal;font-size:37.5px;line-height:125%;font-family:'Source Sans Pro';-inkscape-font-specification:'Source Sans Pro, Bold';text-align:start;writing-mode:lr-tb;text-anchor:start;fill:#000000;stroke:#000000"
         d="m 277.95607,308.9342 q 1.60449,-0.043 2.81508,-0.39452 1.21059,-0.35149 2.14393,-1.10572 0.96252,-0.7778 1.14076,-1.45218 0.17824,-0.67438 -0.29316,-1.25772 -0.28283,-0.35001 -0.75747,-0.40039 -0.46903,-0.10311 -1.09509,0.0171 -0.5969,0.0966 -1.26333,0.34589 -0.68999,0.22009 -1.43272,0.43457 -0.88297,0.2796 -1.83665,0.4717 -0.95368,0.1921 -1.90854,0.14408 -0.97843,-0.0772 -1.87054,-0.46519 -0.91568,-0.41717 -1.64634,-1.32135 -0.80137,-0.99168 -1.10572,-2.14393 -0.27518,-1.17583 -0.0174,-2.34841 0.25779,-1.17258 1.01937,-2.31836 0.73801,-1.17495 1.99219,-2.18844 1.66253,-1.34348 3.38811,-1.77363 1.70201,-0.45932 3.20103,-0.51354 l 0.1491,4.1223 q -1.2589,0.053 -2.27651,0.34501 -1.01762,0.29198 -1.77596,0.90479 -1.63336,1.3199 -0.71414,2.45742 0.28284,0.35001 0.7283,0.42395 0.4219,0.0448 0.96606,-0.0575 0.57332,-0.1258 1.23415,-0.32232 0.66643,-0.24925 1.38559,-0.4929 0.91214,-0.30317 1.86582,-0.49527 0.95927,-0.24484 1.91413,-0.19682 0.98403,0.0245 1.92328,0.47079 0.91568,0.41717 1.71705,1.40885 0.80137,0.99168 1.10572,2.14394 0.30434,1.15225 0.0645,2.40674 -0.26338,1.22532 -1.06532,2.50014 -0.82551,1.24565 -2.28387,2.42414 -1.42919,1.15491 -3.3937,1.82636 -1.93534,0.64788 -3.77435,0.63935 l -0.24339,-4.23897 z" />
      <path
         id="path7169"
         style="font-style:normal;font-variant:normal;font-weight:bold;font-stretch:normal;font-size:37.5px;line-height:125%;font-family:'Source Sans Pro';-inkscape-font-specification:'Source Sans Pro, Bold';text-align:start;writing-mode:lr-tb;text-anchor:start;fill:#000000;stroke:#000000"
         d="m 290.26623,298.60488 q 1.59223,-0.20267 2.76177,-0.67302 1.16954,-0.47035 2.0231,-1.31382 0.88024,-0.86983 0.9904,-1.55861 0.11016,-0.68879 -0.417,-1.22226 -0.3163,-0.32009 -0.79359,-0.32293 -0.47698,-0.0559 -1.08795,0.12612 -0.5843,0.15563 -1.22257,0.47003 -0.66464,0.28774 -1.38231,0.57516 -0.85072,0.36618 -1.78051,0.65234 -0.9298,0.28615 -1.88469,0.33351 -0.98125,0.0207 -1.90758,-0.27651 -0.95268,-0.32387 -1.76979,-1.15076 -0.89619,-0.9069 -1.31382,-2.0231 -0.39096,-1.14256 -0.25129,-2.33499 0.13968,-1.19243 0.78332,-2.40839 0.61728,-1.24262 1.76425,-2.37603 1.5204,-1.50243 3.19453,-2.10236 1.64778,-0.62661 3.13394,-0.82991 l 0.55907,4.08694 q -1.24735,0.1782 -2.23081,0.57011 -0.98346,0.3919 -1.67698,1.07722 -1.49373,1.47607 -0.46575,2.51634 0.3163,0.32009 0.76692,0.34928 0.42425,0.003 0.95552,-0.15342 0.55794,-0.1823 1.1959,-0.44367 0.63828,-0.31441 1.32959,-0.6285 0.87739,-0.39254 1.80719,-0.6787 0.93011,-0.33919 1.885,-0.38655 0.98157,-0.0737 1.96061,0.27683 0.95269,0.32387 1.84887,1.23078 0.89618,0.9069 1.31382,2.0231 0.41763,1.1162 0.304,2.38834 -0.13999,1.24546 -0.81093,2.59384 -0.6973,1.3217 -2.03099,2.63962 -1.30701,1.29156 -3.19485,2.15539 -1.86117,0.83748 -3.69188,1.01221 l -0.66451,-4.19363 z" />
      <path
         id="path7171"
         style="font-style:normal;font-variant:normal;font-weight:bold;font-stretch:normal;font-size:37.5px;line-height:125%;font-family:'Source Sans Pro';-inkscape-font-specification:'Source Sans Pro, Bold';text-align:start;writing-mode:lr-tb;text-anchor:start;fill:#000000;stroke:#000000"
         d="m 297.40431,286.30773 q -1.74542,-1.41986 -2.66847,-3.13756 -0.95214,-1.74136 -1.15486,-3.45318 -0.20814,-1.76457 0.26214,-3.41232 0.47028,-1.64775 1.53517,-2.95681 1.25422,-1.54179 2.70075,-2.25035 1.47021,-0.73766 3.01637,-0.73674 1.56983,-0.0282 3.15744,0.63488 1.55852,0.63939 3.04213,1.84628 0.5818,0.47329 1.02901,0.93376 0.41812,0.43681 0.6326,0.70797 l -7.02833,8.63982 q 1.89479,1.05797 3.45573,0.68418 1.55551,-0.42656 2.73873,-1.88107 1.25422,-1.54179 1.57211,-3.89359 l 3.7486,0.68071 q -0.1429,1.7207 -0.81877,3.44291 -0.65221,1.69312 -1.71711,3.00219 -1.25421,1.54178 -2.83731,2.47764 -1.61219,0.9122 -3.37676,1.12034 -1.79366,0.18449 -3.63962,-0.39869 -1.84595,-0.58317 -3.64955,-2.05037 z m 6.089,-10.51578 q -1.25089,-1.01757 -2.48595,-1.10379 -1.23506,-0.0862 -2.29996,1.22284 -0.82825,1.01816 -0.76902,2.37154 0.0538,1.30063 1.319,2.71657 l 4.23593,-5.20716 z" />
      <path
         id="path7173"
         style="font-style:normal;font-variant:normal;font-weight:bold;font-stretch:normal;font-size:37.5px;line-height:125%;font-family:'Source Sans Pro';-inkscape-font-specification:'Source Sans Pro, Bold';text-align:start;writing-mode:lr-tb;text-anchor:start;fill:#000000;stroke:#000000"
         d="m 308.90326,272.01956 q -1.8987,-1.20725 -3.01524,-2.80595 -1.14818,-1.61882 -1.5486,-3.29544 -0.41194,-1.72839 -0.13647,-3.41966 0.27546,-1.69126 1.1809,-3.11528 1.0664,-1.67718 2.42072,-2.54916 1.37445,-0.90362 2.91022,-1.08253 1.55591,-0.21054 3.20985,0.26339 1.62231,0.45381 3.2362,1.47997 0.6329,0.40242 1.13062,0.80776 0.46608,0.38523 0.71064,0.6296 l -5.97589,9.39855 q 2.00497,0.83044 3.51185,0.27765 1.49535,-0.60455 2.50139,-2.1868 1.06641,-1.67718 1.10865,-4.04999 l 3.80232,0.24015 q 0.0582,1.72565 -0.41283,3.51477 -0.45088,1.75748 -1.35632,3.1815 -1.0664,1.67719 -2.52992,2.7908 -1.49517,1.09349 -3.22356,1.50543 -1.76004,0.39182 -3.66129,0.0273 -1.90125,-0.36455 -3.86324,-1.61204 z m 4.82477,-11.15254 q -1.36073,-0.8652 -2.59744,-0.80721 -1.23671,0.058 -2.14215,1.48202 -0.70422,1.10757 -0.48801,2.44488 0.20469,1.28555 1.62597,2.54475 l 3.60163,-5.66444 z" />
    </g>
  </g>
  <g
     style="display:inline"
     id="layer3">
    <g
       transform="matrix(0.49737688,0,0,0.49737688,19.804718,-89.534336)"
       id="g4771"
       style="display:inline;stroke:#000000;stroke-width:7.82612038;stroke-miterlimit:4;stroke-dasharray:none;stroke-opacity:1">
      <ellipse
         style="opacity:1;fill:#000000;fill-opacity:1;stroke:#000000;stroke-width:7.82612038;stroke-linecap:round;stroke-linejoin:round;stroke-miterlimit:4;stroke-dasharray:none;stroke-dashoffset:0;stroke-opacity:1"
         id="path4138-3"
         cx="323.21823"
         cy="741.11261"
         rx="169.01343"
         ry="37.07122" />
      <path
         style="fill:none;fill-rule:evenodd;stroke:#000000;stroke-width:7.82612038;stroke-linecap:butt;stroke-linejoin:miter;stroke-miterlimit:4;stroke-dasharray:none;stroke-opacity:1"
         d="m 222.85714,332.00506 c 7.10414,34.69549 11.30839,57.43916 7.45975,100.61712 -10.30672,109.25996 -82.74415,196.62631 -77.45975,302.59717 -1.13636,35.32981 120.31357,43.47817 173.43765,43.59246 56.12584,0.12075 167.61397,-7.34932 166.56235,-43.59246 1.30735,-99.26084 -75.44627,-209.89527 -85,-305.71429 -1.31457,-24.2522 4.83935,-68.93043 10.18255,-95.39611 -29.77346,11.37748 -69.09411,16.08894 -99.32863,16.08943 -32.87303,5.4e-4 -72.98694,-4.18275 -95.85392,-18.19332 z"
         id="path4136" />
      <ellipse
         style="opacity:1;fill:none;fill-opacity:1;stroke:#000000;stroke-width:7.82612038;stroke-linecap:round;stroke-linejoin:round;stroke-miterlimit:4;stroke-dasharray:none;stroke-dashoffset:0;stroke-opacity:1"
         id="path4138"
         ry="22.506395"
         rx="99.433357"
         cy="327.51648"
         cx="320.8175" />
      <ellipse
         style="opacity:1;fill:#000000;fill-opacity:1;stroke:#000000;stroke-width:7.82612038;stroke-linecap:round;stroke-linejoin:round;stroke-miterlimit:4;stroke-dasharray:none;stroke-dashoffset:0;stroke-opacity:1"
         id="path4138-4"
         cx="318.70316"
         cy="424.04733"
         rx="88.320877"
         ry="28.721874" />
      <path
         style="fill:#000000;fill-opacity:1;fill-rule:evenodd;stroke:#000000;stroke-width:7.82612038;stroke-linecap:butt;stroke-linejoin:miter;stroke-miterlimit:4;stroke-dasharray:none;stroke-opacity:1"
         d="m 230.28047,432.49784 c -10.30672,109.25996 -84.00684,196.12123 -78.72244,302.09209 -1.13636,35.32981 120.31357,43.47817 173.43765,43.59246 56.12584,0.12075 167.61397,-7.34932 166.56235,-43.59246 1.30735,-99.26084 -75.44627,-209.89527 -85,-305.71429 -33.06074,33.79728 -131.99392,31.33006 -176.27756,3.6222 z"
         id="path4136-7" />
      <ellipse
         clip-path="url(#clipPath7085)"
         style="display:inline;opacity:1;fill:#000000;fill-opacity:1;stroke:#ffffff;stroke-width:14.47594428;stroke-linecap:round;stroke-linejoin:round;stroke-miterlimit:4;stroke-dasharray:none;stroke-dashoffset:0;stroke-opacity:1"
         id="path4138-4-2"
         cx="318.70316"
         cy="424.04733"
         rx="88.320877"
         ry="28.721874" />
    </g>
  </g>
  <g
     id="layer12">
    <g
       id="text4161"
       style="font-style:normal;font-variant:normal;font-weight:300;font-stretch:normal;font-size:46.6468811px;line-height:125%;font-family:'Source Sans Pro';-inkscape-font-specification:'Source Sans Pro, Light';text-align:start;letter-spacing:0px;word-spacing:0px;writing-mode:lr-tb;text-anchor:start;display:inline;fill:none;fill-opacity:1;stroke:#ffffff;stroke-width:2.66553617px;stroke-linecap:butt;stroke-linejoin:miter;stroke-opacity:1">
      <path
         id="path7176"
         style="fill:none;stroke:#ffffff;stroke-width:2.66553617px;stroke-opacity:1"
         d="m 157.74907,239.92991 q -2.75216,0 -5.08451,-1.11952 -2.33234,-1.16618 -4.01163,-3.26529 -1.67929,-2.09911 -2.61222,-5.03786 -0.93294,-2.9854 -0.93294,-6.62386 0,-3.63845 0.93294,-6.53056 0.93293,-2.93875 2.61222,-4.99122 1.67929,-2.09911 4.01163,-3.17198 2.33235,-1.11953 5.08451,-1.11953 2.79882,0 5.13116,1.11953 2.33234,1.07287 4.01163,3.17198 1.67929,2.05247 2.61223,4.99122 0.93294,2.89211 0.93294,6.53056 0,3.63846 -0.93294,6.62386 -0.93294,2.93875 -2.61223,5.03786 -1.67929,2.09911 -4.01163,3.26529 -2.33234,1.11952 -5.13116,1.11952 z m 0,-1.95917 q 2.33235,0 4.24487,-0.97958 1.91252,-1.02623 3.26528,-2.84546 1.39941,-1.86588 2.14576,-4.43146 0.74635,-2.61222 0.74635,-5.83086 0,-3.17198 -0.74635,-5.73756 -0.74635,-2.56558 -2.14576,-4.33816 -1.35276,-1.81923 -3.26528,-2.79882 -1.91252,-0.97958 -4.24487,-0.97958 -2.33234,0 -4.29151,0.97958 -1.91252,0.97959 -3.26528,2.79882 -1.35276,1.77258 -2.09911,4.33816 -0.74635,2.56558 -0.74635,5.73756 0,3.21864 0.74635,5.83086 0.74635,2.56558 2.09911,4.43146 1.35276,1.81923 3.26528,2.84546 1.95917,0.97958 4.29151,0.97958 z" />
      <path
         id="path7178"
         style="fill:none;stroke:#ffffff;stroke-width:2.66553617px;stroke-opacity:1"
         d="m 177.49674,208.62985 2.14576,0 0,13.48095 16.46635,0 0,-13.48095 2.14575,0 0,30.7403 -2.14575,0 0,-15.39347 -16.46635,0 0,15.39347 -2.14576,0 0,-30.7403 z" />
      <path
         id="path7180"
         style="font-style:normal;font-variant:normal;font-weight:300;font-stretch:normal;font-size:46.6468811px;line-height:125%;font-family:'Source Sans Pro';-inkscape-font-specification:'Source Sans Pro, Light';text-align:start;writing-mode:lr-tb;baseline-shift:super;text-anchor:start;fill:none;stroke:#ffffff;stroke-width:2.66553617px;stroke-opacity:1"
         d="m 204.62992,208.16338 10.26231,0 0,1.81923 -10.26231,0 0,-1.81923 z" />
    </g>
  </g>
  <g
     style="display:none"
     id="layer6">
    <ellipse
       ry="3.1499996"
       rx="3.1500001"
       cy="466.51477"
       cx="426.33945"
       id="path6975-7"
       style="display:inline;opacity:1;fill:#2a7fff;fill-opacity:1;stroke:none;stroke-width:0.6338473;stroke-linecap:round;stroke-miterlimit:10;stroke-dasharray:none;stroke-dashoffset:0;stroke-opacity:1"
       transform="translate(-360.2655,-177.81818)" />
    <ellipse
       ry="3.5999994"
       rx="3.5999999"
       cy="134.31233"
       cx="159.54086"
       id="path6975"
       style="display:inline;opacity:1;fill:#ff5555;fill-opacity:1;stroke:none;stroke-width:0.6338473;stroke-linecap:round;stroke-miterlimit:10;stroke-dasharray:none;stroke-dashoffset:0;stroke-opacity:1" />
    <path
       id="path7030"
       d="m 360.81793,369.88517 360.73494,0"
       style="display:inline;fill:none;fill-rule:evenodd;stroke:#ff5555;stroke-width:1px;stroke-linecap:butt;stroke-linejoin:miter;stroke-opacity:1"
       transform="translate(-360.2655,-177.81818)" />
  </g>
</svg>
