<?xml version="1.0" encoding="UTF-8" standalone="no"?>
<!-- Created with Inkscape (http://www.inkscape.org/) -->

<svg
   xmlns:dc="http://purl.org/dc/elements/1.1/"
   xmlns:cc="http://creativecommons.org/ns#"
   xmlns:rdf="http://www.w3.org/1999/02/22-rdf-syntax-ns#"
   xmlns:svg="http://www.w3.org/2000/svg"
   xmlns="http://www.w3.org/2000/svg"
   xmlns:xlink="http://www.w3.org/1999/xlink"
   xmlns:sodipodi="http://sodipodi.sourceforge.net/DTD/sodipodi-0.dtd"
   xmlns:inkscape="http://www.inkscape.org/namespaces/inkscape"
   width="4in"
   height="4in"
   viewBox="0 0 360 360"
   id="svg2"
   version="1.1"
   inkscape:version="0.91 r13725"
   sodipodi:docname="women-in-stem-it's-not-just-a-phase.svg"
   inkscape:export-filename="C:\Users\email\Documents\GitHub\pins\equality-in-stem-is-so-basic.png"
   inkscape:export-xdpi="600"
   inkscape:export-ydpi="600">
  <defs
     id="defs4">
    <clipPath
       clipPathUnits="userSpaceOnUse"
       id="clipPath7015">
      <rect
         style="fill:#0000ff;fill-rule:evenodd;stroke:#000000;stroke-width:1.12117362px;stroke-linecap:butt;stroke-linejoin:miter;stroke-opacity:1"
         id="rect7017"
         width="372.53506"
         height="243.62883"
         x="184.54485"
         y="460.53503" />
    </clipPath>
    <clipPath
       clipPathUnits="userSpaceOnUse"
       id="clipPath7085">
      <path
         sodipodi:nodetypes="ccccccccccc"
         style="fill:none;fill-rule:evenodd;stroke:#000000;stroke-width:2.01054788px;stroke-linecap:butt;stroke-linejoin:miter;stroke-opacity:1"
         d="m 236.30675,444.57894 c 0.98765,-5.24125 1.18771,-14.92523 1.68407,-20.16648 l 160.22562,-0.27767 c 0.63359,6.02181 2.65953,14.67349 3.80454,19.67245 0,0 2.63378,8.73253 3.32795,12.81499 l -16.00902,1.3568 -35.52115,9.51788 -57.65602,0 -42.78399,-11.46395 -18.82529,-1.34725 z"
         id="path7087"
         inkscape:connector-curvature="0" />
    </clipPath>
    <clipPath
       clipPathUnits="userSpaceOnUse"
       id="clipPath4170">
      <rect
         y="425.09424"
         x="360.23666"
         height="222.68581"
         width="361.34503"
         id="rect4172"
         style="fill:#0000ff;fill-rule:evenodd;stroke:#000000;stroke-width:0.94235694px;stroke-linecap:butt;stroke-linejoin:miter;stroke-opacity:1" />
    </clipPath>
  </defs>
  <sodipodi:namedview
     id="base"
     pagecolor="#ffffff"
     bordercolor="#666666"
     borderopacity="1.0"
     inkscape:pageopacity="0.0"
     inkscape:pageshadow="2"
     inkscape:zoom="1.28"
     inkscape:cx="341.93629"
     inkscape:cy="151.5469"
     inkscape:document-units="px"
     inkscape:current-layer="layer3"
     showgrid="false"
     inkscape:window-width="1920"
     inkscape:window-height="1017"
     inkscape:window-x="1912"
     inkscape:window-y="-8"
     inkscape:window-maximized="1"
     units="in"
     fit-margin-top="0"
     fit-margin-left="0"
     fit-margin-right="0"
     fit-margin-bottom="0" />
  <metadata
     id="metadata7">
    <rdf:RDF>
      <cc:Work
         rdf:about="">
        <dc:format>image/svg+xml</dc:format>
        <dc:type
           rdf:resource="http://purl.org/dc/dcmitype/StillImage" />
        <dc:title></dc:title>
      </cc:Work>
    </rdf:RDF>
  </metadata>
  <g
     inkscape:groupmode="layer"
     id="layer4"
     inkscape:label="Outline Circle"
     style="display:inline">
    <path
       style="opacity:1;fill:none;fill-opacity:1;stroke:#ffffff;stroke-width:2.27625918;stroke-linecap:round;stroke-miterlimit:10;stroke-dasharray:none;stroke-dashoffset:0;stroke-opacity:1"
       d="M 44.281857,230.06906 A 144.65935,144.65935 0 0 1 129.93096,44.28185 144.65935,144.65935 0 0 1 315.71817,129.931 144.65935,144.65935 0 0 1 230.06905,315.71814 144.65935,144.65935 0 0 1 44.281857,230.06906 Z"
       id="path5328"
       inkscape:connector-curvature="0" />
    <path
       style="display:inline;opacity:1;fill:none;fill-opacity:1;stroke:#ffffff;stroke-width:2.63433623;stroke-linecap:round;stroke-miterlimit:10;stroke-dasharray:none;stroke-dashoffset:0;stroke-opacity:1"
       d="M 35.380422,264.3396 A 167.41562,167.41562 0 0 0 264.33962,324.61955 167.41562,167.41562 0 0 0 324.61954,95.660333 167.41562,167.41562 0 0 0 95.660402,35.380433 167.41562,167.41562 0 0 0 35.380422,264.3396 Z"
       id="path5328-8"
       inkscape:connector-curvature="0" />
    <path
       style="display:inline;opacity:0.98000004;fill:#000000;fill-opacity:1;stroke:none;stroke-width:22;stroke-linejoin:miter;stroke-miterlimit:4;stroke-dasharray:none"
       d="m 360.2655,357.81818 a 180,180 0 0 1 180,-180 180,180 0 0 1 180,180 180,180 0 0 1 -180,180 180,180 0 0 1 -180,-180 z m 42.63086,0 A 137.36842,137.36842 0 0 0 540.2655,495.18732 137.36842,137.36842 0 0 0 677.63464,357.81818 137.36842,137.36842 0 0 0 540.2655,220.44904 137.36842,137.36842 0 0 0 402.89636,357.81818 Z"
       id="path4136-5"
       inkscape:connector-curvature="0"
       clip-path="url(#clipPath4170)"
       transform="translate(-360.2655,-177.81818)" />
    <text
       xml:space="preserve"
       style="font-style:normal;font-variant:normal;font-weight:bold;font-stretch:normal;font-size:35px;line-height:120%;font-family:'Source Sans Pro';-inkscape-font-specification:'Source Sans Pro, Bold';text-align:start;letter-spacing:0px;word-spacing:0px;writing-mode:lr;text-anchor:start;fill:#000000;fill-opacity:1;stroke:#000000;stroke-width:1px;stroke-linecap:butt;stroke-linejoin:miter;stroke-opacity:1.0;"
       id="text5314"
       sodipodi:linespacing="120%"><textPath
         xlink:href="#path5328"
         id="textPath5332"
         style="font-style:normal;font-variant:normal;font-weight:bold;font-stretch:normal;font-size:35px;line-height:120%;font-family:'Source Sans Pro';-inkscape-font-specification:'Source Sans Pro, Bold';text-align:start;writing-mode:lr;text-anchor:start;fill:#000000;stroke:#000000;stroke-opacity:1.0;"
         startOffset="0%">Women in STEM, it's not just a phase</textPath></text>
  </g>
  <g
     inkscape:groupmode="layer"
     id="layer5"
     inkscape:label="pipeline"
     style="display:inline">
    <text
       xml:space="preserve"
       style="font-style:normal;font-variant:normal;font-weight:bold;font-stretch:normal;font-size:37.5px;line-height:125%;font-family:'Source Sans Pro';-inkscape-font-specification:'Source Sans Pro, Bold';text-align:start;letter-spacing:0px;word-spacing:0px;writing-mode:lr;text-anchor:start;fill:#ffffff;fill-opacity:1;stroke:#ffffff;stroke-width:1px;stroke-linecap:butt;stroke-linejoin:miter;stroke-opacity:1;"
       id="text6949"
       sodipodi:linespacing="125%"><textPath
         xlink:href="#path5328-8"
         id="textPath6972"><tspan
   style="stroke:#ffffff;fill:#ffffff;-inkscape-font-specification:'Source Sans Pro, Bold';font-family:'Source Sans Pro';font-weight:bold;font-style:normal;font-stretch:normal;font-variant:normal;font-size:37.5px;text-anchor:start;text-align:start;writing-mode:lr;line-height:125%;"
   id="tspan6951">pipeline at tennessee</tspan></textPath></text>
  </g>
  <g
     inkscape:groupmode="layer"
     id="layer3"
     inkscape:label="Phases"
     style="display:inline">
    <path
       sodipodi:nodetypes="ccc"
       inkscape:connector-curvature="0"
       id="path4254"
       d="m 206.9181,237.94575 c 16.589,-0.0557 11.42911,-119.32056 32.47489,-120.35107 21.40193,0.68887 2.03466,122.96751 32.66367,121.90269"
       style="display:inline;fill:#000000;fill-rule:evenodd;stroke:#ffffff;stroke-width:2.62117052px;stroke-linecap:butt;stroke-linejoin:miter;stroke-opacity:1" />
    <path
       sodipodi:nodetypes="ccccc"
       inkscape:connector-curvature="0"
       id="path4254-5"
       d="m 76.378834,236.66478 c 16.58898,-0.0557 11.16872,-119.19555 32.214476,-120.22606 21.40195,0.6889 2.0347,122.96748 32.6637,121.90266 26.15808,0.42005 17.03726,-121.30612 32.57691,-121.57865 16.61732,-0.29028 11.11467,121.50636 33.17137,121.17688"
       style="display:inline;fill:#000000;fill-rule:evenodd;stroke:#ffffff;stroke-width:2.62117028px;stroke-linecap:butt;stroke-linejoin:miter;stroke-opacity:1" />
    <path
       sodipodi:nodetypes="ccccc"
       inkscape:connector-curvature="0"
       id="path4254-2"
       d="m 85.132414,236.66478 c 16.588976,-0.0557 11.16869,-119.19555 32.214466,-120.22606 21.40193,0.6889 2.03469,122.96748 32.6637,121.90266 26.15809,0.42005 17.03727,-121.30612 32.57691,-121.57865 16.61732,-0.29028 11.11468,121.50636 33.17135,121.17688"
       style="display:inline;fill:#000000;fill-opacity:1;fill-rule:evenodd;stroke:#ffffff;stroke-width:2.62117004px;stroke-linecap:butt;stroke-linejoin:miter;stroke-opacity:1" />
    <path
       sodipodi:nodetypes="ccc"
       inkscape:connector-curvature="0"
       id="path4254-2-6"
       d="m 215.54798,237.96494 c 16.58898,-0.0557 11.37494,-119.22504 32.42069,-120.25558 21.40193,0.6889 3.2012,123.13419 33.83022,122.06936"
       style="display:inline;fill:#000000;fill-opacity:1;fill-rule:evenodd;stroke:#ffffff;stroke-width:2.62117052px;stroke-linecap:butt;stroke-linejoin:miter;stroke-opacity:1" />
  </g>
  <g
     inkscape:groupmode="layer"
     id="layer6"
     inkscape:label="check"
     style="display:none">
    <ellipse
       transform="translate(-360.2655,-177.81818)"
       style="display:inline;opacity:1;fill:#2a7fff;fill-opacity:1;stroke:none;stroke-width:0.6338473;stroke-linecap:round;stroke-miterlimit:10;stroke-dasharray:none;stroke-dashoffset:0;stroke-opacity:1"
       id="path6975-7"
       cx="426.33945"
       cy="466.51477"
       rx="3.1500001"
       ry="3.1499996" />
    <ellipse
       style="display:inline;opacity:1;fill:#ff5555;fill-opacity:1;stroke:none;stroke-width:0.6338473;stroke-linecap:round;stroke-miterlimit:10;stroke-dasharray:none;stroke-dashoffset:0;stroke-opacity:1"
       id="path6975"
       cx="159.54086"
       cy="134.31233"
       rx="3.5999999"
       ry="3.5999994" />
    <path
       transform="translate(-360.2655,-177.81818)"
       style="display:inline;fill:none;fill-rule:evenodd;stroke:#ff5555;stroke-width:1px;stroke-linecap:butt;stroke-linejoin:miter;stroke-opacity:1"
       d="m 360.81793,369.88517 360.73494,0"
       id="path7030"
       inkscape:connector-curvature="0" />
  </g>
</svg>
